<svg width="2285" height="416" viewBox="0 0 2285 416" fill="none" xmlns="http://www.w3.org/2000/svg">
<path d="M278.164 132.646C278.164 132.194 278.357 131.823 278.728 131.545C279.099 131.267 279.594 131.123 280.199 131.123H321.659C322.112 131.123 322.525 131.267 322.91 131.545C323.281 131.833 323.473 132.194 323.473 132.646V299.373C323.473 299.712 323.281 300.021 322.91 300.309C322.525 300.597 322.112 300.731 321.659 300.731H236.938C219.576 300.391 205.898 294.905 195.932 284.283L90.6044 166.747C86.2192 162.455 80.7893 160.304 74.3009 160.304H45.3091V299.383C45.3091 299.722 45.1166 300.031 44.7455 300.32C44.3743 300.608 43.8794 300.741 43.2746 300.741H1.81457C1.36093 300.741 0.948527 300.597 0.563619 300.32C0.178712 300.042 0 299.722 0 299.383V132.657C0 132.204 0.192459 131.833 0.563619 131.555C0.93478 131.277 1.36093 131.133 1.81457 131.133H86.5354C103.897 131.586 117.575 137.124 127.542 147.757L232.869 265.128C237.089 269.533 242.533 271.746 249.172 271.746H278.164V132.667V132.646Z" fill="white"/>
<path d="M684.9 251.654C684.9 264.037 679.058 276.162 667.758 285.199C654.808 295.564 638.931 300.742 620.112 300.742H425.981C408.165 300.742 392.906 296.017 380.218 286.578C367.53 277.14 361.193 265.745 361.193 252.406V132.657C361.193 132.204 361.385 131.833 361.756 131.556C362.128 131.278 362.622 131.134 363.227 131.134H404.687C405.141 131.134 405.553 131.278 405.938 131.556C406.309 131.844 406.502 132.204 406.502 132.657V257.151C406.502 261.217 408.426 264.675 412.276 267.495C416.125 270.326 420.689 271.736 425.981 271.736H620.112C625.542 271.736 630.147 270.326 633.927 267.495C637.694 264.665 639.591 261.217 639.591 257.151V132.657C639.591 132.204 639.783 131.833 640.154 131.556C640.526 131.278 641.02 131.134 641.625 131.134H682.852C683.456 131.134 683.951 131.278 684.323 131.556C684.694 131.844 684.886 132.204 684.886 132.657V251.654H684.9Z" fill="white"/>
<path d="M755.682 186.757C755.682 190.823 757.566 194.281 761.346 197.101C765.113 199.932 769.649 201.342 774.941 201.342H969.292C987.108 201.342 1002.33 206.067 1014.93 215.505C1027.54 224.944 1033.85 236.4 1033.85 249.853V252.231C1033.85 265.57 1027.54 276.996 1014.93 286.496C1002.33 295.996 987.108 300.742 969.292 300.742H725.096C724.642 300.742 724.23 300.598 723.845 300.32C723.46 300.042 723.281 299.671 723.281 299.218V273.095C723.281 272.642 723.474 272.271 723.845 271.993C724.216 271.715 724.642 271.571 725.096 271.571H969.292C974.571 271.571 979.107 270.161 982.888 267.33C986.668 264.5 988.551 261.113 988.551 257.151V244.943C988.551 240.991 986.654 237.563 982.888 234.681C979.107 231.799 974.585 230.358 969.292 230.358H774.941C757.126 230.358 741.908 225.634 729.302 216.195C716.697 206.756 710.387 195.362 710.387 182.022V180.21C710.387 167.818 716.257 155.682 727.584 146.635C740.52 136.311 756.315 131.144 774.955 131.144H1019.14C1019.59 131.144 1020 131.288 1020.39 131.566C1020.76 131.854 1020.95 132.163 1020.95 132.502V158.791C1020.95 159.13 1020.76 159.439 1020.39 159.727C1020.02 160.016 1019.59 160.149 1019.14 160.149H774.955C769.663 160.149 765.14 161.57 761.36 164.39C757.579 167.221 755.696 170.669 755.696 174.735V186.777L755.682 186.757Z" fill="white"/>
<path d="M993.514 132.646C993.514 132.194 993.707 131.823 994.078 131.545C994.449 131.267 994.875 131.123 995.329 131.123H1315.17C1315.63 131.123 1316.04 131.267 1316.42 131.545C1316.8 131.833 1316.99 132.194 1316.99 132.646V158.77C1316.99 159.11 1316.8 159.419 1316.42 159.707C1316.05 159.995 1315.63 160.129 1315.17 160.129H1177.9V299.208C1177.9 299.661 1177.71 300.031 1177.34 300.309C1176.95 300.597 1176.54 300.731 1176.08 300.731H1134.62C1134.02 300.731 1133.52 300.587 1133.15 300.309C1132.78 300.031 1132.59 299.661 1132.59 299.208V160.129H995.315C994.862 160.129 994.449 159.985 994.064 159.707C993.679 159.429 993.501 159.11 993.501 158.77V132.646H993.514Z" fill="white"/>
<path d="M2274.58 223.132C2281.54 215.268 2285 206.427 2285 196.597V179.634C2285 166.181 2278.69 154.725 2266.1 145.276C2253.48 135.848 2238.26 131.123 2220.43 131.123H1962.06C1961.61 131.123 1961.18 131.267 1960.8 131.545C1960.43 131.823 1960.23 132.183 1960.23 132.646V160.283H2220.43C2225.72 160.283 2230.26 161.693 2234.04 164.524C2237.79 167.354 2239.7 170.731 2239.7 174.693V201.332C2239.7 205.408 2237.79 208.846 2234.04 211.686C2230.26 214.496 2225.72 215.927 2220.43 215.927H1961.53V299.373C1961.53 299.712 1961.72 300.011 1962.09 300.299C1962.46 300.577 1962.9 300.721 1963.35 300.721H2004.8C2005.39 300.721 2005.9 300.577 2006.27 300.299C2006.64 300.021 2006.84 299.712 2006.84 299.373V245.098H2199.37L2234.25 299.877C2234.7 300.443 2235.29 300.721 2236.08 300.721H2282.03C2282.81 300.721 2283.32 300.505 2283.64 300.062C2283.93 299.599 2284.01 299.156 2283.86 298.693L2247.83 242.051L2246.95 240.702C2258.41 236.843 2267.62 230.996 2274.58 223.132Z" fill="white"/>
<path d="M1684.75 85.4119C1652.24 86.1942 1633.96 74.419 1630.24 50.5392C1627.82 50.3025 1625.92 50.3951 1623.61 51.445C1621.08 74.5631 1651.75 96.0857 1685.03 90.1364C1686.29 88.4689 1686.18 86.9559 1684.75 85.4119ZM1784.35 265.91L1777.48 266.692L1707.16 274.69L1692.48 276.357L1584.05 288.699V282.369L1584.16 282.348V246.003L1812.78 219.767L1822.52 218.645L1867.06 213.539C1868.41 213.416 1869.48 213.014 1870.36 212.458C1871.23 211.851 1871.74 211.172 1871.74 210.39L1871.87 165.337C1871.87 164.534 1871.45 163.968 1870.56 163.546C1869.68 163.186 1868.59 163.083 1867.23 163.227L1837.56 166.624L1830.18 167.468L1584.16 195.629V152.636L1770.04 131.35L1796.89 128.272C1797.13 128.251 1797.37 128.19 1797.59 128.128C1798.1 127.963 1798.52 127.706 1798.91 127.325C1799.44 126.779 1799.75 126.1 1799.75 125.318L1799.91 80.2654C1799.94 79.5037 1799.62 78.8552 1799.1 78.4332C1798.56 78.0112 1797.89 77.8466 1797.09 77.9495L1777.68 80.1624C1774.89 75.757 1771.26 71.5781 1766.73 67.6565C1749.03 52.4022 1724.77 47.338 1696.04 50.251C1694.91 45.4853 1694.27 41.1211 1692.82 37.0451C1685.58 16.7267 1670.03 2.68702 1640.63 0.299041C1608.87 -2.2948 1584.68 12.1566 1578.18 36.9833C1576.27 44.1576 1575.61 51.2597 1575.62 58.3516C1575.62 65.2067 1575.65 81.8917 1575.65 103.301L1565.36 104.485C1565.42 78.8758 1565.47 58.3928 1565.53 49.9113C1565.53 46.5558 1564.4 44.1781 1561.05 42.1916C1552.46 37.0863 1544.26 31.6206 1535.81 26.3918C1532.77 24.4979 1530.6 22.6966 1531.05 18.9294C1531.64 13.9887 1526.52 11.014 1520.18 11.5287C1513.58 12.0536 1508.15 16.212 1507.64 21.1424C1507.19 25.7845 1511.78 30.3855 1517.73 29.1812C1525.39 27.6167 1528.77 30.7252 1533.03 33.3808C1539.59 37.4568 1545.94 41.7181 1552.66 45.6603C1555.93 47.5851 1557.31 49.8804 1557.31 53.2977C1557.28 61.3983 1557.28 80.8933 1557.28 105.401L1524.15 109.199C1524.72 107.727 1526.15 106.667 1527.62 105.422C1532.74 101.078 1532.74 95.5711 1527.89 92.6788C1523.38 89.982 1516.23 90.7848 1511.78 94.5109C1506.97 98.5149 1506.71 104.32 1512 107.151C1513.66 108.057 1514.65 109.045 1515.19 110.228L1462.06 116.301C1462.09 113.965 1462.09 111.638 1461.89 109.323C1461.59 105.607 1463.3 102.673 1466.91 99.678C1476.26 91.8965 1485.33 83.94 1494.4 75.9835C1496.98 73.7087 1499.45 72.3501 1503.5 72.0825C1510.6 71.5781 1515.79 66.8742 1515.73 61.8718C1515.59 57.0032 1510.32 53.73 1503.89 54.5329C1497.07 55.3563 1491.81 59.8029 1492.34 65.1244C1492.66 68.1608 1491.08 70.1474 1488.51 72.3604C1478.2 81.1609 1468.08 90.0849 1457.71 98.8546C1454.81 101.325 1453.58 103.703 1453.66 106.718C1453.74 110.239 1453.8 113.738 1453.8 117.248L1403.48 123.023C1403.48 120.243 1403.43 117.475 1403.32 114.716C1403.15 110.661 1404.64 107.501 1408.67 104.125C1421.96 93.0081 1434.89 81.6756 1447.86 70.3532C1450.57 67.9858 1453.07 66.3904 1457.44 66.1537C1464.45 65.7728 1469.66 60.9454 1469.58 55.8813C1469.5 50.9921 1464.29 47.7395 1457.8 48.5012C1450.98 49.3246 1445.55 53.8432 1446.19 59.0721C1446.57 62.1497 1444.96 64.0951 1442.39 66.3081C1428.08 78.6288 1413.88 91.0319 1399.48 103.311C1396.42 105.905 1395.14 108.376 1395.19 111.597C1395.25 115.715 1395.22 119.842 1395.19 123.959L1394.77 124.021L1394.6 169.99V170.01C1392.8 175.702 1388.83 180.807 1381.72 185.604C1377.41 188.538 1374.37 191.955 1367.78 192.294C1361.84 192.614 1357.53 197.523 1357.78 202.104C1358.02 206.643 1362.59 209.576 1368.68 209.062C1374.88 208.537 1380.94 204.739 1380.38 200.375C1379.73 195.249 1383.65 192.192 1387.65 188.754C1391.37 185.522 1394.89 182.135 1398.86 179.13C1401.31 177.298 1402.56 175.435 1403.09 173.366L1515.95 160.438L1516.06 203.411L1311.86 226.786C1311.86 221.599 1311.86 216.432 1311.83 211.244C1311.81 208.434 1312.85 206.159 1315.59 203.823C1326.41 194.652 1337.09 185.367 1347.73 176.062C1350.01 174.055 1352.21 172.944 1355.76 172.728C1363.03 172.223 1368.35 167.818 1368.51 162.815C1368.65 158.07 1363.33 154.55 1356.96 155.178C1350.34 155.837 1344.91 160.386 1345.28 165.708C1345.5 168.682 1344.1 170.731 1341.44 172.985C1330.2 182.599 1319.16 192.367 1307.86 201.949C1305.15 204.286 1303.97 206.489 1304 209.329C1304.16 219.684 1304.08 230.039 1304.08 240.383L1304.25 240.363C1304.25 250.718 1304.38 261.052 1304.16 271.417C1304.08 274.628 1305.46 276.821 1308.51 278.694C1319.52 285.426 1330.26 292.404 1341.21 299.198C1343.97 300.906 1345.78 302.635 1345.56 305.909C1345.18 311.199 1350.28 314.287 1356.72 313.546C1362.92 312.826 1368.02 308.42 1368.1 303.737C1368.18 298.673 1362.94 295.43 1355.62 296.738C1352.02 297.386 1349.87 296.696 1347.62 295.266C1337.79 288.977 1327.96 282.667 1318.01 276.532L1375.17 269.955L1375.26 269.976C1378.38 272.251 1381.65 274.422 1385.2 276.306C1388.95 278.313 1390.47 280.989 1390.33 284.767C1390.05 294.154 1390.25 303.5 1390.25 312.846H1390.3C1390.3 321.873 1390.59 330.859 1390.16 339.948C1389.94 344.466 1391.99 347.39 1396.23 349.983C1410.23 358.506 1423.88 367.368 1437.73 376.056C1440.15 377.579 1441.56 379.133 1441.36 382.026C1440.96 387.615 1445.58 390.548 1452.23 389.745C1458.7 388.963 1463.56 384.836 1463.64 380.08C1463.69 375.17 1458.88 372.103 1451.72 373.246C1447.64 373.884 1445.15 372.926 1442.59 371.321C1428.98 362.654 1415.4 353.998 1401.66 345.475C1398.75 343.684 1397.6 341.553 1397.63 338.538C1397.79 323.901 1396.53 309.367 1398.05 294.679C1399.24 283.439 1396.34 274.762 1386.84 268.627L1516.21 253.775L1516.4 317.416C1516.4 319.465 1514.96 320.813 1513.15 322.336C1507.94 326.742 1507.71 332.351 1512.37 335.1C1516.83 337.714 1524.26 336.685 1528.43 332.887C1532.77 328.903 1532.59 323.602 1527.36 320.762C1524.54 319.238 1523.67 317.385 1523.7 314.771C1523.81 306.29 1523.78 297.829 1523.81 289.347L1523.97 289.327V279.157C1524.03 278.951 1524.06 278.735 1524.17 278.529L1523.97 278.55V252.879L1557.36 249.06C1557.39 265.92 1557.39 278.931 1557.42 285.179V285.415L1557.71 285.374C1557.71 313.176 1557.74 340.977 1557.82 368.778C1557.82 371.166 1556.37 372.937 1554.27 374.748C1546.19 381.706 1538.02 388.634 1530.08 395.695C1527.74 397.743 1525.4 398.711 1521.97 399.009C1514.53 399.668 1510.13 403.497 1510.1 408.623C1510.1 413.491 1514.91 416.528 1521.29 415.694C1527.92 414.85 1532.57 410.733 1532.19 405.36C1532 402.57 1533.35 400.615 1535.82 398.505C1543.82 391.711 1551.49 384.712 1559.63 378.022C1563.61 374.748 1565.27 371.609 1565.24 367.471C1565.19 358.732 1565.13 349.983 1565.13 341.234L1575.95 340.009C1575.95 346.381 1575.98 352.752 1576 359.124C1576.06 368.655 1576.99 378.042 1581.02 386.74C1586.82 399.307 1598.55 405.936 1617.24 405.833C1625.22 405.813 1633.05 404.691 1640.74 402.179C1670.03 392.566 1685.5 375.098 1692.58 353.092C1694.01 348.666 1694.64 344.209 1695.72 339.382C1716.48 336.726 1734.71 330.519 1749.87 320.144L1922.23 300.484V250.172L1784.35 265.848V265.91ZM1523.93 202.526V159.532L1557.31 155.713C1557.31 170.062 1557.34 184.678 1557.34 198.707L1523.95 202.526H1523.93ZM1565.34 154.787L1575.67 153.603C1575.7 167.9 1575.7 182.506 1575.7 196.597L1565.28 197.781C1565.31 183.792 1565.31 169.176 1565.34 154.787ZM1575.91 289.625L1565.2 290.85C1565.2 288.441 1565.23 286.023 1565.23 283.635V275.997C1565.31 275.616 1565.36 275.236 1565.52 274.834L1565.23 274.875C1565.25 268.123 1565.25 258.973 1565.25 248.186L1575.7 247.002V275.606L1575.62 275.627C1575.67 275.709 1575.67 275.812 1575.7 275.905V282.379C1575.7 282.698 1575.73 283.017 1575.76 283.346L1575.92 283.326V289.635L1575.91 289.625ZM1584.16 102.344V89.9408C1595.06 87.7072 1604.78 91.0216 1612.24 99.1222L1584.16 102.334V102.344ZM1588.95 30.1385C1596.23 13.4535 1616.31 4.16918 1639.91 6.63951C1665.18 9.2951 1678.51 21.6776 1684.91 39.2272C1686.34 43.1488 1687.7 47.1631 1686.79 51.6303C1681.91 53.9977 1676.26 54.2653 1671.67 56.8385C1670.88 58.9486 1671.81 60.3793 1673.52 61.5424C1714.15 46.9058 1752.58 58.3619 1768.88 81.1815L1623.11 97.887C1616.54 90.6511 1603.31 85.2987 1583.81 82.2108C1584.13 65.0832 1581.24 47.9145 1588.97 30.1488L1588.95 30.1385ZM1674.11 333.854C1672.03 335.522 1671.54 336.911 1672.03 338.435C1674.14 339.577 1676.91 339.237 1679.38 339.536C1681.85 339.834 1684.7 339.217 1687.41 340.699C1687.49 349.88 1684.19 359.134 1678.42 368.202C1665.69 388.304 1640.08 401.294 1615.57 400.326C1603.43 399.843 1595.06 395.643 1590.01 387.882C1585.7 381.233 1583.92 373.771 1583.68 366.071C1583.43 357.147 1583.39 348.182 1583.39 339.217L1638.69 332.907C1631.9 345.249 1629.27 357.013 1634.41 368.305C1637.12 368.408 1638.84 367.698 1640.81 366.071C1637.4 355.984 1638.47 345.444 1645.4 334.75C1646.04 333.762 1646.69 332.825 1647.39 331.899L1737.12 321.667C1718.89 331.775 1697.44 335.46 1674.13 333.844L1674.11 333.854ZM1685.02 90.1364C1686.28 88.4689 1686.17 86.9559 1684.74 85.4119C1652.23 86.1942 1633.95 74.419 1630.22 50.5392C1627.8 50.3025 1625.91 50.3951 1623.6 51.445C1621.07 74.5631 1651.74 96.0857 1685.02 90.1364ZM1500.88 363.344C1497.95 364.486 1495.78 363.642 1493.61 362.242C1483.63 355.809 1473.52 349.438 1463.35 343.108C1460.82 341.564 1459.67 339.67 1459.69 336.994C1459.86 327.442 1459.89 317.921 1459.78 308.41C1459.72 305.754 1460.79 303.768 1463.56 301.596C1468.74 297.52 1468.88 292.126 1464.42 289.234C1460.05 286.403 1452.9 287.103 1448.39 290.819C1443.69 294.7 1443.75 300.371 1449.07 303.408C1451.69 304.879 1452.42 306.64 1452.39 309.058C1452.34 318.425 1452.74 327.75 1452.26 337.158C1451.98 342.243 1454.17 345.578 1459.02 348.419C1468.82 354.111 1478.03 360.318 1487.56 366.246C1489.98 367.749 1491.53 369.242 1491.16 372.196C1490.51 377.527 1495.44 380.759 1501.95 380.111C1508.18 379.524 1513.39 375.191 1513.5 370.497C1513.61 365.351 1508.51 362.397 1500.88 363.344ZM1684.75 85.4119C1652.24 86.1942 1633.96 74.419 1630.24 50.5392C1627.82 50.3025 1625.92 50.3951 1623.61 51.445C1621.08 74.5631 1651.75 96.0857 1685.03 90.1364C1686.29 88.4689 1686.18 86.9559 1684.75 85.4119Z" fill="url(#paint0_linear_13_28)"/>
<defs>
<linearGradient id="paint0_linear_13_28" x1="1765.88" y1="382.699" x2="1875.86" y2="-6.90211" gradientUnits="userSpaceOnUse">
<stop offset="0.16" stop-color="#795EF6"/>
<stop offset="0.31" stop-color="#7B5EF6"/>
<stop offset="0.41" stop-color="#845EF6"/>
<stop offset="0.49" stop-color="#935EF6"/>
<stop offset="0.57" stop-color="#A85EF6"/>
<stop offset="0.64" stop-color="#C35EF6"/>
<stop offset="0.65" stop-color="#CA5FF7"/>
<stop offset="0.72" stop-color="#D46EDE"/>
<stop offset="0.87" stop-color="#ED95A0"/>
<stop offset="0.93" stop-color="#F8A588"/>
</linearGradient>
</defs>
</svg>
